<?xml version="1.0" encoding="UTF-8"?> <svg xmlns="http://www.w3.org/2000/svg" width="168" height="55" viewBox="0 0 168 55" fill="none"><path d="M69.8378 20.7256V26.6662H79.3302V30.1526H69.8378V40.0318H65.5425V17.2366H81.2342V20.7231H69.8378V20.7256Z" fill="white"></path><path d="M96.431 23.4058V40.0344H93.0073L92.7486 38.1932C91.6509 39.5822 89.8097 40.5192 88.0011 40.5192C84.9994 40.5192 82.4474 38.1932 82.4474 34.8046V23.4083H86.3533V35.1613C86.3533 35.5482 86.386 35.935 86.5794 36.1937C87.0969 36.9372 87.8379 37.3894 88.5814 37.3894C89.2596 37.3894 89.6791 36.8719 92.52 35.2266V23.4108H96.426L96.431 23.4058Z" fill="white"></path><path d="M101.794 34.478V26.5355H98.4681V23.4032H101.794V19.2058H105.7V23.4032H112.351V26.5355H105.7V35.1889C105.7 35.641 105.798 35.965 105.991 36.2212C106.539 36.9321 107.25 37.3516 108.026 37.3516C108.511 37.3516 108.897 37.0276 111.836 35.641L113.58 37.2561C112.482 39.3234 110.382 40.5166 107.993 40.5166C104.376 40.5166 101.794 37.967 101.794 34.478Z" fill="white"></path><path d="M129.417 23.4058V40.0344H125.993L125.735 38.1932C124.637 39.5822 122.796 40.5192 120.987 40.5192C117.985 40.5192 115.433 38.1932 115.433 34.8046V23.4083H119.339V35.1613C119.339 35.5482 119.372 35.935 119.565 36.1937C120.083 36.9372 120.824 37.3894 121.567 37.3894C122.246 37.3894 122.665 36.8719 125.506 35.2266V23.4108H129.412L129.417 23.4058Z" fill="white"></path><path d="M133.057 23.4057H136.48L136.706 25.3097C137.739 23.8578 139.193 22.9209 140.904 22.9209C143.004 22.9209 144.262 24.212 144.94 25.6011L143.325 27.4096C141.162 26.2793 141.162 26.1838 140.58 26.1838C139.869 26.1838 139.643 26.5079 136.963 28.2511V40.0368H133.057V23.4082V23.4057Z" fill="white"></path><path d="M158.376 34.9L160.054 36.6106C158.633 39.0974 156.116 40.5166 153.37 40.5166C149.238 40.5166 145.782 37.1909 145.782 33.0915V30.346C145.782 26.3421 149.236 22.9209 153.37 22.9209C157.505 22.9209 160.733 26.2466 160.733 30.0571V33.0287H149.756V34.2545C149.756 34.8674 149.756 35.3195 150.175 35.837C150.949 36.8367 152.112 37.3541 153.34 37.3541C154.244 37.3541 154.89 36.9673 158.376 34.9ZM156.957 29.2483C156.957 28.6354 156.925 28.2159 156.538 27.6985C155.764 26.6988 154.601 26.0833 153.34 26.0833C152.079 26.0833 150.951 26.6963 150.175 27.6985C149.756 28.2159 149.756 28.6354 149.756 29.2483V30.1852H156.955V29.2483H156.957Z" fill="white"></path><path d="M163.614 17.2366H167.52V40.0318H163.614V17.2366Z" fill="white"></path><path d="M43.6289 50.1143V29.1929H54.2391C55.6357 29.1929 56.3365 27.5074 55.3518 26.5177C48.8008 19.9266 32.2325 3.44116 32.2325 3.44116V24.3626H21.3963C20.0977 24.3626 19.4471 25.9275 20.3614 26.8493C26.7843 33.3073 43.5108 50.1143 43.6289 50.1143Z" fill="#FBCB00"></path><path d="M43.6264 50.1144V55H6.30244C4.75513 55 3.2681 54.3645 2.12017 53.2065C0.761249 51.8401 -0.0124088 49.8632 0.000150574 47.7884L0.0101983 46.123C0.0478764 40.4788 0.0905786 33.4582 0.0654598 27.9898C0.0503886 24.3677 1.67557 20.949 4.31053 19.0526L28.6707 0.0828885L28.7737 0C29.1354 0.36171 30.4315 1.65281 32.2627 3.47392L28.6707 6.26964L7.22932 22.9686L7.18411 23.0012C5.79755 23.9859 4.94101 25.8874 4.94854 27.9672C4.97366 33.4582 4.92845 40.4964 4.89328 46.1507L4.88323 47.8135C4.88072 48.5872 5.13944 49.3131 5.58153 49.7577C5.74229 49.9185 5.99599 50.1094 6.29993 50.1094H43.6239L43.6264 50.1144Z" fill="#FBCB00"></path></svg> 